<svg width="40" height="40" viewBox="0 0 40 40" fill="none" xmlns="http://www.w3.org/2000/svg" class="icon icon-cart-empty">
<path fill="currentColor" fill-rule="evenodd" clip-rule="evenodd" d="M24.8349 10.4768C25.0189 9.83285 25.6075 9.38889 26.2772 9.38889H29.0229V10.3889H26.2772C26.054 10.3889 25.8578 10.5369 25.7964 10.7515L25.1148 13.1374L22.9494 20.716L23.9679 22.5493C24.5234 23.5491 23.8004 24.7778 22.6567 24.7778H11.5229V23.7778H22.6567C23.038 23.7778 23.2789 23.3682 23.0938 23.035L22.1176 21.2778H14.2114C13.549 21.2778 12.965 20.8433 12.7746 20.2088L11.0413 14.431C10.7526 13.4686 11.4732 12.5 12.478 12.5H24.2569L24.8349 10.4768ZM23.9711 13.5H12.478C12.1431 13.5 11.9029 13.8229 11.9991 14.1437L13.7325 19.9214C13.7959 20.1329 13.9906 20.2778 14.2114 20.2778H22.0346L23.9711 13.5ZM13.8562 25.9444C12.8437 25.9444 12.0229 26.7653 12.0229 27.7778C12.0229 28.7903 12.8437 29.6111 13.8562 29.6111C14.8687 29.6111 15.6896 28.7903 15.6896 27.7778C15.6896 26.7653 14.8687 25.9444 13.8562 25.9444ZM11.0229 27.7778C11.0229 26.213 12.2914 24.9444 13.8562 24.9444C15.421 24.9444 16.6896 26.213 16.6896 27.7778C16.6896 29.3426 15.421 30.6111 13.8562 30.6111C12.2914 30.6111 11.0229 29.3426 11.0229 27.7778ZM21.3562 27.7778C21.3562 26.7653 22.177 25.9444 23.1896 25.9444C24.2021 25.9444 25.0229 26.7653 25.0229 27.7778C25.0229 28.7903 24.2021 29.6111 23.1896 29.6111C22.177 29.6111 21.3562 28.7903 21.3562 27.7778ZM23.1896 24.9444C21.6248 24.9444 20.3562 26.213 20.3562 27.7778C20.3562 29.3426 21.6248 30.6111 23.1896 30.6111C24.7544 30.6111 26.0229 29.3426 26.0229 27.7778C26.0229 26.213 24.7544 24.9444 23.1896 24.9444Z" fill="black"/>
</svg>
